# xmcd CD database file
#
# Track frame offsets:
#	150
#	24795
#	47475
#	97814
#	144866
#	192037
#	228960
#
# Disc length: 3393 seconds
#
# Revision: 0
# Processed by: cddbd v1.5.1PL2 Copyright (c) Steve Scherf et al.
# Submitted via: CDex 1.40Release
#
DISCID=410d3f07
DTITLE=Pinto Bennett - A Trailer Court Christmas
DYEAR=1900
DGENRE=Country
TTITLE0=Winnemucca
TTITLE1=I Hang Around Here Sometimes
TTITLE2=First Door To the Wrong - Hard Core Cowboy - I Couldnt Feel Any Worse If I Tried
TTITLE3=Tell 'Er Where To Go - Honky Tonk Christmas
TTITLE4=Plain Ol' Fashioned Cheatin - Two Waltzing Mice
TTITLE5=Midnight At The Oasis - Valuable Time
TTITLE6=Honky Tonk Asshole
EXTD=ID3G: 2
EXTT0=
EXTT1=
EXTT2=
EXTT3=
EXTT4=
EXTT5=
EXTT6=
PLAYORDER=
